# xmcd
#
# Track frame offsets:
#	150
#	23217
#	42732
#	65785
#	86085
#	102322
#	129245
#	149395
#	169615
#	190157
#
# Disc length: 2783 seconds
#
# Revision: 3
# Processed by: cddbd v1.5.2PL0 Copyright (c) Steve Scherf et al.
# Submitted via: EZCDAudioConverter 8.0.2.1
#
DISCID=8e0add0a
DTITLE=Various Artist - Nhạc Tiền Chiến 2
DYEAR=1998
DGENRE=Blues
TTITLE0=Khánh Hà - Chiều tím
TTITLE1=Tuấn Ngọc - Dư âm
TTITLE2=Lệ Thu - Hương xưa
TTITLE3=Tuấn Ngọc - Hoài cảm
TTITLE4=Khánh Hà - Tình nghệ sĩ
TTITLE5=Khánh Ly, Lệ Thu - Giọt mưa trên lá
TTITLE6=Tuấn Ngọc - Mộng dưới hoa
TTITLE7=Khánh Hà - Gọi gió cho mây ngàn bay
TTITLE8=Tuấn Ngọc - Rồi mai tôi đưa em
TTITLE9=Ý Lan - Vũ nữ thân gầy
EXTD=
EXTT0=
EXTT1=
EXTT2=
EXTT3=
EXTT4=
EXTT5=
EXTT6=
EXTT7=
EXTT8=
EXTT9=
PLAYORDER=
